<?xml version="1.0" encoding="UTF-8" standalone="no"?>
<!DOCTYPE svg PUBLIC "-//W3C//DTD SVG 1.1//EN"
 "http://www.w3.org/Graphics/SVG/1.1/DTD/svg11.dtd">
<!-- Generated by graphviz version 2.47.0 (20210316.0004)
 -->
<!-- Title: dependencies Pages: 1 -->
<svg width="734pt" height="211pt"
 viewBox="0.00 0.00 734.00 211.00" xmlns="http://www.w3.org/2000/svg" xmlns:xlink="http://www.w3.org/1999/xlink">
<g id="graph0" class="graph" transform="scale(1 1) rotate(0) translate(4 207)">
<title>dependencies</title>
<polygon fill="white" stroke="transparent" points="-4,4 -4,-207 730,-207 730,4 -4,4"/>
<text text-anchor="start" x="342.01" y="-42.4" font-family="Times-12" font-weight="bold" font-size="14.00">Legend</text>
<polygon fill="#ffffb3" stroke="transparent" points="129,-10 129,-30 149,-30 149,-10 129,-10"/>
<text text-anchor="start" x="152.63" y="-15.4" font-family="Times-12" font-size="14.00"> &#160;Declarations</text>
<polygon fill="#8dd3c7" stroke="transparent" points="242,-10 242,-30 262,-30 262,-10 242,-10"/>
<text text-anchor="start" x="265.73" y="-15.4" font-family="Times-12" font-size="14.00"> &#160;Module</text>
<polygon fill="#80b1d3" stroke="transparent" points="328,-10 328,-30 348,-30 348,-10 328,-10"/>
<text text-anchor="start" x="351.78" y="-15.4" font-family="Times-12" font-size="14.00"> &#160;Bootstrap</text>
<polygon fill="#fdb462" stroke="transparent" points="425,-10 425,-30 445,-30 445,-10 425,-10"/>
<text text-anchor="start" x="448.67" y="-15.4" font-family="Times-12" font-size="14.00"> &#160;Providers</text>
<polygon fill="#fb8072" stroke="transparent" points="521,-10 521,-30 541,-30 541,-10 521,-10"/>
<text text-anchor="start" x="544.73" y="-15.4" font-family="Times-12" font-size="14.00"> &#160;Exports</text>
<g id="clust1" class="cluster">
<title>cluster_DashboardModule</title>
<polygon fill="none" stroke="black" stroke-dasharray="1,5" points="8,-70 8,-195 718,-195 718,-70 8,-70"/>
</g>
<g id="clust2" class="cluster">
<title>cluster_DashboardModule_declarations</title>
<polygon fill="none" stroke="black" points="352,-78 352,-130 710,-130 710,-78 352,-78"/>
</g>
<g id="clust5" class="cluster">
<title>cluster_DashboardModule_imports</title>
<polygon fill="none" stroke="black" points="16,-78 16,-130 344,-130 344,-78 16,-78"/>
</g>
<!-- DashboardComponent -->
<g id="node1" class="node">
<title>DashboardComponent</title>
<polygon fill="#ffffb3" stroke="black" points="701.97,-122 560.03,-122 560.03,-86 701.97,-86 701.97,-122"/>
<text text-anchor="middle" x="631" y="-99.8" font-family="Times,serif" font-size="14.00">DashboardComponent</text>
</g>
<!-- DashboardModule -->
<g id="node3" class="node">
<title>DashboardModule</title>
<polygon fill="#8dd3c7" stroke="black" points="422.19,-187 419.19,-191 398.19,-191 395.19,-187 301.81,-187 301.81,-151 422.19,-151 422.19,-187"/>
<text text-anchor="middle" x="362" y="-164.8" font-family="Times,serif" font-size="14.00">DashboardModule</text>
</g>
<!-- DashboardComponent&#45;&gt;DashboardModule -->
<g id="edge1" class="edge">
<title>DashboardComponent&#45;&gt;DashboardModule</title>
<path fill="none" stroke="black" d="M631,-122.11C631,-141.34 631,-169 631,-169 631,-169 432.37,-169 432.37,-169"/>
<polygon fill="black" stroke="black" points="432.37,-165.5 422.37,-169 432.37,-172.5 432.37,-165.5"/>
</g>
<!-- DashboardHeaderComponent -->
<g id="node2" class="node">
<title>DashboardHeaderComponent</title>
<polygon fill="#ffffb3" stroke="black" points="542.38,-122 359.62,-122 359.62,-86 542.38,-86 542.38,-122"/>
<text text-anchor="middle" x="451" y="-99.8" font-family="Times,serif" font-size="14.00">DashboardHeaderComponent</text>
</g>
<!-- DashboardHeaderComponent&#45;&gt;DashboardModule -->
<g id="edge2" class="edge">
<title>DashboardHeaderComponent&#45;&gt;DashboardModule</title>
<path fill="none" stroke="black" d="M390.95,-122.11C390.95,-122.11 390.95,-140.99 390.95,-140.99"/>
<polygon fill="black" stroke="black" points="387.45,-140.99 390.95,-150.99 394.45,-140.99 387.45,-140.99"/>
</g>
<!-- CalendarEventPipe -->
<g id="node4" class="node">
<title>CalendarEventPipe</title>
<polygon fill="#8dd3c7" stroke="black" points="336.08,-122 333.08,-126 312.08,-126 309.08,-122 211.92,-122 211.92,-86 336.08,-86 336.08,-122"/>
<text text-anchor="middle" x="274" y="-99.8" font-family="Times,serif" font-size="14.00">CalendarEventPipe</text>
</g>
<!-- CalendarEventPipe&#45;&gt;DashboardModule -->
<g id="edge3" class="edge">
<title>CalendarEventPipe&#45;&gt;DashboardModule</title>
<path fill="none" stroke="black" d="M318.97,-122.11C318.97,-122.11 318.97,-140.99 318.97,-140.99"/>
<polygon fill="black" stroke="black" points="315.47,-140.99 318.97,-150.99 322.47,-140.99 315.47,-140.99"/>
</g>
<!-- DashboardsRoutingModule -->
<g id="node5" class="node">
<title>DashboardsRoutingModule</title>
<polygon fill="#8dd3c7" stroke="black" points="194.25,-122 191.25,-126 170.25,-126 167.25,-122 23.75,-122 23.75,-86 194.25,-86 194.25,-122"/>
<text text-anchor="middle" x="109" y="-99.8" font-family="Times,serif" font-size="14.00">DashboardsRoutingModule</text>
</g>
<!-- DashboardsRoutingModule&#45;&gt;DashboardModule -->
<g id="edge4" class="edge">
<title>DashboardsRoutingModule&#45;&gt;DashboardModule</title>
<path fill="none" stroke="black" d="M109,-122.11C109,-141.34 109,-169 109,-169 109,-169 291.72,-169 291.72,-169"/>
<polygon fill="black" stroke="black" points="291.72,-172.5 301.72,-169 291.72,-165.5 291.72,-172.5"/>
</g>
</g>
</svg>
