<?xml version="1.0" encoding="UTF-8" standalone="no"?>
<!DOCTYPE svg PUBLIC "-//W3C//DTD SVG 1.1//EN"
 "http://www.w3.org/Graphics/SVG/1.1/DTD/svg11.dtd">
<!-- Generated by graphviz version 2.47.0 (20210316.0004)
 -->
<!-- Title: dependencies Pages: 1 -->
<svg width="504pt" height="211pt"
 viewBox="0.00 0.00 504.00 211.00" xmlns="http://www.w3.org/2000/svg" xmlns:xlink="http://www.w3.org/1999/xlink">
<g id="graph0" class="graph" transform="scale(1 1) rotate(0) translate(4 207)">
<title>dependencies</title>
<polygon fill="white" stroke="transparent" points="-4,4 -4,-207 500,-207 500,4 -4,4"/>
<text text-anchor="start" x="227.01" y="-42.4" font-family="Times-12" font-weight="bold" font-size="14.00">Legend</text>
<polygon fill="#ffffb3" stroke="transparent" points="14,-10 14,-30 34,-30 34,-10 14,-10"/>
<text text-anchor="start" x="37.63" y="-15.4" font-family="Times-12" font-size="14.00"> &#160;Declarations</text>
<polygon fill="#8dd3c7" stroke="transparent" points="127,-10 127,-30 147,-30 147,-10 127,-10"/>
<text text-anchor="start" x="150.73" y="-15.4" font-family="Times-12" font-size="14.00"> &#160;Module</text>
<polygon fill="#80b1d3" stroke="transparent" points="213,-10 213,-30 233,-30 233,-10 213,-10"/>
<text text-anchor="start" x="236.78" y="-15.4" font-family="Times-12" font-size="14.00"> &#160;Bootstrap</text>
<polygon fill="#fdb462" stroke="transparent" points="310,-10 310,-30 330,-30 330,-10 310,-10"/>
<text text-anchor="start" x="333.67" y="-15.4" font-family="Times-12" font-size="14.00"> &#160;Providers</text>
<polygon fill="#fb8072" stroke="transparent" points="406,-10 406,-30 426,-30 426,-10 406,-10"/>
<text text-anchor="start" x="429.73" y="-15.4" font-family="Times-12" font-size="14.00"> &#160;Exports</text>
<g id="clust1" class="cluster">
<title>cluster_ErrorModule</title>
<polygon fill="none" stroke="black" stroke-dasharray="1,5" points="98,-70 98,-195 398,-195 398,-70 98,-70"/>
</g>
<g id="clust2" class="cluster">
<title>cluster_ErrorModule_declarations</title>
<polygon fill="none" stroke="black" points="264,-78 264,-130 390,-130 390,-78 264,-78"/>
</g>
<g id="clust4" class="cluster">
<title>cluster_ErrorModule_imports</title>
<polygon fill="none" stroke="black" points="106,-78 106,-130 256,-130 256,-78 106,-78"/>
</g>
<!-- ErrorComponent -->
<g id="node1" class="node">
<title>ErrorComponent</title>
<polygon fill="#ffffb3" stroke="black" points="382.37,-122 271.63,-122 271.63,-86 382.37,-86 382.37,-122"/>
<text text-anchor="middle" x="327" y="-99.8" font-family="Times,serif" font-size="14.00">ErrorComponent</text>
</g>
<!-- ErrorModule -->
<g id="node2" class="node">
<title>ErrorModule</title>
<polygon fill="#8dd3c7" stroke="black" points="298.58,-187 295.58,-191 274.58,-191 271.58,-187 209.42,-187 209.42,-151 298.58,-151 298.58,-187"/>
<text text-anchor="middle" x="254" y="-164.8" font-family="Times,serif" font-size="14.00">ErrorModule</text>
</g>
<!-- ErrorComponent&#45;&gt;ErrorModule -->
<g id="edge1" class="edge">
<title>ErrorComponent&#45;&gt;ErrorModule</title>
<path fill="none" stroke="black" d="M285.05,-122.11C285.05,-122.11 285.05,-140.99 285.05,-140.99"/>
<polygon fill="black" stroke="black" points="281.55,-140.99 285.05,-150.99 288.55,-140.99 281.55,-140.99"/>
</g>
<!-- ErrorRoutingModule -->
<g id="node3" class="node">
<title>ErrorRoutingModule</title>
<polygon fill="#8dd3c7" stroke="black" points="248.2,-122 245.2,-126 224.2,-126 221.2,-122 113.8,-122 113.8,-86 248.2,-86 248.2,-122"/>
<text text-anchor="middle" x="181" y="-99.8" font-family="Times,serif" font-size="14.00">ErrorRoutingModule</text>
</g>
<!-- ErrorRoutingModule&#45;&gt;ErrorModule -->
<g id="edge2" class="edge">
<title>ErrorRoutingModule&#45;&gt;ErrorModule</title>
<path fill="none" stroke="black" d="M228.78,-122.11C228.78,-122.11 228.78,-140.99 228.78,-140.99"/>
<polygon fill="black" stroke="black" points="225.28,-140.99 228.78,-150.99 232.28,-140.99 225.28,-140.99"/>
</g>
</g>
</svg>
