<svg width="50" height="50" viewBox="0 0 50 50" fill="none" xmlns="http://www.w3.org/2000/svg">
<path fill-rule="evenodd" clip-rule="evenodd" d="M26.6296 2.54563C26.1341 2.29006 25.5718 2.15557 24.9996 2.15571C24.4273 2.15559 23.8651 2.29008 23.3694 2.54563L4.0434 12.512C3.54782 12.7676 3.13631 13.1351 2.85018 13.5778C2.56407 14.0205 2.41345 14.5226 2.41346 15.0338V34.9664C2.41345 35.4775 2.56407 35.9796 2.85018 36.4223C3.13629 36.8648 3.54782 37.2325 4.0434 37.488L23.3694 47.4544C23.865 47.7099 24.4272 47.8445 24.9995 47.8445C25.5718 47.8445 26.1339 47.7099 26.6296 47.4544L45.9556 37.488C46.4513 37.2325 46.8627 36.8648 47.1487 36.4223C47.4348 35.9796 47.5855 35.4775 47.5855 34.9664V15.0338C47.5855 14.5226 47.4348 14.0205 47.1487 13.5778C46.8627 13.1351 46.4513 12.7676 45.9556 12.512L26.6296 2.54563ZM22.163 0.67894C23.0256 0.234483 24.0038 0.00034737 24.9996 0H25.0006C25.9965 0.000378982 26.9748 0.234512 27.8373 0.67894L47.1633 10.6453C48.0246 11.0911 48.7399 11.7311 49.2379 12.5012C49.7356 13.2713 49.9985 14.1445 50 15.0338V34.9664C49.9982 35.8557 49.7353 36.7291 49.2374 37.4993C48.7394 38.2692 48.0238 38.9093 47.1623 39.3549L27.8363 49.3213C26.9738 49.766 25.9955 50 24.9996 50C24.0038 50 23.0255 49.766 22.163 49.3213L2.83692 39.3549C1.97551 38.9091 1.26015 38.2692 0.76232 37.499C0.264497 36.7291 0.00163253 35.8557 0 34.9664V15.0338C0.00158164 14.1445 0.264393 13.2713 0.762174 12.5011C1.25996 11.731 1.97528 11.0911 2.83667 10.6453L22.163 0.67894ZM11.8723 23.4917C12.1662 23.491 12.4574 23.5422 12.7289 23.6429C13.0004 23.7434 13.2469 23.891 13.4541 24.0771L16.4483 26.7515L22.5959 21.2604C23.2336 20.6918 24.0978 20.3725 24.9989 20.3725C25.8999 20.3725 26.7641 20.6918 27.4017 21.2604L35.9497 28.8955L38.5916 26.5358C39.0116 26.1616 39.5802 25.9514 40.1735 25.9514C40.7666 25.9514 41.3355 26.1616 41.7552 26.5358L45.2158 29.6293V16.0793C45.2158 15.6217 45.081 15.1723 44.8246 14.776C44.5684 14.3798 44.2001 14.0508 43.7565 13.822L26.4579 4.90115C26.0143 4.67234 25.5109 4.55188 24.9986 4.55188C24.4863 4.55188 23.983 4.67234 23.5392 4.90115L6.24044 13.822C5.79682 14.0508 5.42841 14.3798 5.17224 14.776C4.91608 15.1723 4.78119 15.6217 4.78109 16.0793V28.9969L10.2894 24.0769C10.4967 23.8906 10.7435 23.7429 11.0151 23.6427C11.2869 23.5422 11.5782 23.4908 11.8723 23.4917ZM4.78109 31.946V33.9219C4.78126 34.3415 4.89492 34.7548 5.11238 35.1267C5.32985 35.4989 5.64467 35.8182 6.03006 36.0583L14.798 28.2265L12.3672 26.0553C12.3021 25.9973 12.2249 25.9512 12.14 25.9198C12.055 25.8883 11.9639 25.8721 11.872 25.8721C11.78 25.8721 11.689 25.8883 11.604 25.9198C11.519 25.9512 11.4418 25.9973 11.3768 26.0553L4.78109 31.946ZM43.9675 36.058L37.6017 30.371L39.6778 28.5155C39.8091 28.3982 39.9873 28.3323 40.1732 28.3323C40.3589 28.3323 40.537 28.3982 40.6684 28.5155L45.2162 32.5777V33.9216C45.216 34.3412 45.1025 34.7545 44.8851 35.1265C44.6677 35.4984 44.353 35.818 43.9675 36.058ZM35.9517 31.8448L34.3014 30.371L25.7534 22.7361C25.5539 22.5581 25.2836 22.4583 25.0017 22.4583C24.7198 22.4583 24.4495 22.5581 24.25 22.7361L18.1024 28.2272L16.4518 29.7015L8.11768 37.1446L23.5415 45.0991C23.9852 45.3279 24.4885 45.4483 25.0008 45.4483C25.5131 45.4483 26.0166 45.3279 26.4602 45.0991L41.8839 37.1446L35.9517 31.8448Z" fill="#212121"/>
</svg>
