<?xml version="1.0" encoding="UTF-8" standalone="no"?>
<!DOCTYPE svg PUBLIC "-//W3C//DTD SVG 1.1//EN"
 "http://www.w3.org/Graphics/SVG/1.1/DTD/svg11.dtd">
<!-- Generated by graphviz version 2.47.0 (20210316.0004)
 -->
<!-- Title: dependencies Pages: 1 -->
<svg width="1032pt" height="284pt"
 viewBox="0.00 0.00 1032.00 284.00" xmlns="http://www.w3.org/2000/svg" xmlns:xlink="http://www.w3.org/1999/xlink">
<g id="graph0" class="graph" transform="scale(1 1) rotate(0) translate(4 280)">
<title>dependencies</title>
<polygon fill="white" stroke="transparent" points="-4,4 -4,-280 1028,-280 1028,4 -4,4"/>
<text text-anchor="start" x="491.01" y="-42.4" font-family="Times-12" font-weight="bold" font-size="14.00">Legend</text>
<polygon fill="#ffffb3" stroke="transparent" points="278,-10 278,-30 298,-30 298,-10 278,-10"/>
<text text-anchor="start" x="301.63" y="-15.4" font-family="Times-12" font-size="14.00"> &#160;Declarations</text>
<polygon fill="#8dd3c7" stroke="transparent" points="391,-10 391,-30 411,-30 411,-10 391,-10"/>
<text text-anchor="start" x="414.73" y="-15.4" font-family="Times-12" font-size="14.00"> &#160;Module</text>
<polygon fill="#80b1d3" stroke="transparent" points="477,-10 477,-30 497,-30 497,-10 477,-10"/>
<text text-anchor="start" x="500.78" y="-15.4" font-family="Times-12" font-size="14.00"> &#160;Bootstrap</text>
<polygon fill="#fdb462" stroke="transparent" points="574,-10 574,-30 594,-30 594,-10 574,-10"/>
<text text-anchor="start" x="597.67" y="-15.4" font-family="Times-12" font-size="14.00"> &#160;Providers</text>
<polygon fill="#fb8072" stroke="transparent" points="670,-10 670,-30 690,-30 690,-10 670,-10"/>
<text text-anchor="start" x="693.73" y="-15.4" font-family="Times-12" font-size="14.00"> &#160;Exports</text>
<g id="clust1" class="cluster">
<title>cluster_AppLayoutModule</title>
<polygon fill="none" stroke="black" stroke-dasharray="1,5" points="8,-70 8,-268 1016,-268 1016,-70 8,-70"/>
</g>
<g id="clust10" class="cluster">
<title>cluster_AppLayoutModule_exports</title>
<polygon fill="none" stroke="black" points="440,-208 440,-260 604,-260 604,-208 440,-208"/>
</g>
<g id="clust2" class="cluster">
<title>cluster_AppLayoutModule_declarations</title>
<polygon fill="none" stroke="black" points="16,-78 16,-130 1008,-130 1008,-78 16,-78"/>
</g>
<!-- AppFooterComponent -->
<g id="node1" class="node">
<title>AppFooterComponent</title>
<polygon fill="#ffffb3" stroke="black" points="999.99,-122 858.01,-122 858.01,-86 999.99,-86 999.99,-122"/>
<text text-anchor="middle" x="929" y="-99.8" font-family="Times,serif" font-size="14.00">AppFooterComponent</text>
</g>
<!-- AppLayoutModule -->
<g id="node7" class="node">
<title>AppLayoutModule</title>
<polygon fill="#8dd3c7" stroke="black" points="583.81,-187 580.81,-191 559.81,-191 556.81,-187 460.19,-187 460.19,-151 583.81,-151 583.81,-187"/>
<text text-anchor="middle" x="522" y="-164.8" font-family="Times,serif" font-size="14.00">AppLayoutModule</text>
</g>
<!-- AppFooterComponent&#45;&gt;AppLayoutModule -->
<g id="edge1" class="edge">
<title>AppFooterComponent&#45;&gt;AppLayoutModule</title>
<path fill="none" stroke="black" d="M929,-122.28C929,-143.32 929,-175 929,-175 929,-175 593.81,-175 593.81,-175"/>
<polygon fill="black" stroke="black" points="593.81,-171.5 583.81,-175 593.81,-178.5 593.81,-171.5"/>
</g>
<!-- AppLayoutComponent -->
<g id="node2" class="node">
<title>AppLayoutComponent</title>
<polygon fill="#ffffb3" stroke="black" points="839.6,-122 694.4,-122 694.4,-86 839.6,-86 839.6,-122"/>
<text text-anchor="middle" x="767" y="-99.8" font-family="Times,serif" font-size="14.00">AppLayoutComponent</text>
</g>
<!-- AppLayoutComponent&#45;&gt;AppLayoutModule -->
<g id="edge2" class="edge">
<title>AppLayoutComponent&#45;&gt;AppLayoutModule</title>
<path fill="none" stroke="black" d="M767,-122.02C767,-139.37 767,-163 767,-163 767,-163 593.82,-163 593.82,-163"/>
<polygon fill="black" stroke="black" points="593.82,-159.5 583.82,-163 593.82,-166.5 593.82,-159.5"/>
</g>
<!-- AppMenuComponent -->
<g id="node3" class="node">
<title>AppMenuComponent</title>
<polygon fill="#ffffb3" stroke="black" points="676.1,-122 537.9,-122 537.9,-86 676.1,-86 676.1,-122"/>
<text text-anchor="middle" x="607" y="-99.8" font-family="Times,serif" font-size="14.00">AppMenuComponent</text>
</g>
<!-- AppMenuComponent&#45;&gt;AppLayoutModule -->
<g id="edge3" class="edge">
<title>AppMenuComponent&#45;&gt;AppLayoutModule</title>
<path fill="none" stroke="black" d="M560.8,-122.11C560.8,-122.11 560.8,-140.99 560.8,-140.99"/>
<polygon fill="black" stroke="black" points="557.3,-140.99 560.8,-150.99 564.3,-140.99 557.3,-140.99"/>
</g>
<!-- AppMenuitemComponent -->
<g id="node4" class="node">
<title>AppMenuitemComponent</title>
<polygon fill="#ffffb3" stroke="black" points="519.48,-122 356.52,-122 356.52,-86 519.48,-86 519.48,-122"/>
<text text-anchor="middle" x="438" y="-99.8" font-family="Times,serif" font-size="14.00">AppMenuitemComponent</text>
</g>
<!-- AppMenuitemComponent&#45;&gt;AppLayoutModule -->
<g id="edge4" class="edge">
<title>AppMenuitemComponent&#45;&gt;AppLayoutModule</title>
<path fill="none" stroke="black" d="M489.92,-122.11C489.92,-122.11 489.92,-140.99 489.92,-140.99"/>
<polygon fill="black" stroke="black" points="486.42,-140.99 489.92,-150.99 493.42,-140.99 486.42,-140.99"/>
</g>
<!-- AppSidebarComponent -->
<g id="node5" class="node">
<title>AppSidebarComponent</title>
<polygon fill="#ffffb3" stroke="black" points="338.2,-122 189.8,-122 189.8,-86 338.2,-86 338.2,-122"/>
<text text-anchor="middle" x="264" y="-99.8" font-family="Times,serif" font-size="14.00">AppSidebarComponent</text>
</g>
<!-- AppSidebarComponent&#45;&gt;AppLayoutModule -->
<g id="edge5" class="edge">
<title>AppSidebarComponent&#45;&gt;AppLayoutModule</title>
<path fill="none" stroke="black" d="M264,-122.02C264,-139.37 264,-163 264,-163 264,-163 450.2,-163 450.2,-163"/>
<polygon fill="black" stroke="black" points="450.2,-166.5 460.2,-163 450.2,-159.5 450.2,-166.5"/>
</g>
<!-- AppTopBarComponent -->
<g id="node6" class="node">
<title>AppTopBarComponent</title>
<polygon fill="#ffffb3" stroke="black" points="172.2,-122 23.8,-122 23.8,-86 172.2,-86 172.2,-122"/>
<text text-anchor="middle" x="98" y="-99.8" font-family="Times,serif" font-size="14.00">AppTopBarComponent</text>
</g>
<!-- AppTopBarComponent&#45;&gt;AppLayoutModule -->
<g id="edge6" class="edge">
<title>AppTopBarComponent&#45;&gt;AppLayoutModule</title>
<path fill="none" stroke="black" d="M98,-122.28C98,-143.32 98,-175 98,-175 98,-175 449.89,-175 449.89,-175"/>
<polygon fill="black" stroke="black" points="449.89,-178.5 459.89,-175 449.89,-171.5 449.89,-178.5"/>
</g>
<!-- AppLayoutComponent  -->
<g id="node8" class="node">
<title>AppLayoutComponent </title>
<polygon fill="#fb8072" stroke="black" points="596.1,-252 447.9,-252 447.9,-216 596.1,-216 596.1,-252"/>
<text text-anchor="middle" x="522" y="-229.8" font-family="Times,serif" font-size="14.00">AppLayoutComponent </text>
</g>
<!-- AppLayoutModule&#45;&gt;AppLayoutComponent  -->
<g id="edge7" class="edge">
<title>AppLayoutModule&#45;&gt;AppLayoutComponent </title>
<path fill="none" stroke="black" stroke-dasharray="5,2" d="M522,-187.11C522,-187.11 522,-205.99 522,-205.99"/>
<polygon fill="black" stroke="black" points="518.5,-205.99 522,-215.99 525.5,-205.99 518.5,-205.99"/>
</g>
</g>
</svg>
