<?xml version="1.0" encoding="UTF-8" standalone="no"?>
<!DOCTYPE svg PUBLIC "-//W3C//DTD SVG 1.1//EN"
 "http://www.w3.org/Graphics/SVG/1.1/DTD/svg11.dtd">
<!-- Generated by graphviz version 2.47.0 (20210316.0004)
 -->
<!-- Title: dependencies Pages: 1 -->
<svg width="504pt" height="211pt"
 viewBox="0.00 0.00 504.00 211.00" xmlns="http://www.w3.org/2000/svg" xmlns:xlink="http://www.w3.org/1999/xlink">
<g id="graph0" class="graph" transform="scale(1 1) rotate(0) translate(4 207)">
<title>dependencies</title>
<polygon fill="white" stroke="transparent" points="-4,4 -4,-207 500,-207 500,4 -4,4"/>
<text text-anchor="start" x="227.01" y="-42.4" font-family="Times-12" font-weight="bold" font-size="14.00">Legend</text>
<polygon fill="#ffffb3" stroke="transparent" points="14,-10 14,-30 34,-30 34,-10 14,-10"/>
<text text-anchor="start" x="37.63" y="-15.4" font-family="Times-12" font-size="14.00"> &#160;Declarations</text>
<polygon fill="#8dd3c7" stroke="transparent" points="127,-10 127,-30 147,-30 147,-10 127,-10"/>
<text text-anchor="start" x="150.73" y="-15.4" font-family="Times-12" font-size="14.00"> &#160;Module</text>
<polygon fill="#80b1d3" stroke="transparent" points="213,-10 213,-30 233,-30 233,-10 213,-10"/>
<text text-anchor="start" x="236.78" y="-15.4" font-family="Times-12" font-size="14.00"> &#160;Bootstrap</text>
<polygon fill="#fdb462" stroke="transparent" points="310,-10 310,-30 330,-30 330,-10 310,-10"/>
<text text-anchor="start" x="333.67" y="-15.4" font-family="Times-12" font-size="14.00"> &#160;Providers</text>
<polygon fill="#fb8072" stroke="transparent" points="406,-10 406,-30 426,-30 426,-10 406,-10"/>
<text text-anchor="start" x="429.73" y="-15.4" font-family="Times-12" font-size="14.00"> &#160;Exports</text>
<g id="clust1" class="cluster">
<title>cluster_AccessModule</title>
<polygon fill="none" stroke="black" stroke-dasharray="1,5" points="88,-70 88,-195 408,-195 408,-70 88,-70"/>
</g>
<g id="clust2" class="cluster">
<title>cluster_AccessModule_declarations</title>
<polygon fill="none" stroke="black" points="264,-78 264,-130 400,-130 400,-78 264,-78"/>
</g>
<g id="clust4" class="cluster">
<title>cluster_AccessModule_imports</title>
<polygon fill="none" stroke="black" points="96,-78 96,-130 256,-130 256,-78 96,-78"/>
</g>
<!-- AccessComponent -->
<g id="node1" class="node">
<title>AccessComponent</title>
<polygon fill="#ffffb3" stroke="black" points="392.47,-122 271.53,-122 271.53,-86 392.47,-86 392.47,-122"/>
<text text-anchor="middle" x="332" y="-99.8" font-family="Times,serif" font-size="14.00">AccessComponent</text>
</g>
<!-- AccessModule -->
<g id="node2" class="node">
<title>AccessModule</title>
<polygon fill="#8dd3c7" stroke="black" points="303.69,-187 300.69,-191 279.69,-191 276.69,-187 204.31,-187 204.31,-151 303.69,-151 303.69,-187"/>
<text text-anchor="middle" x="254" y="-164.8" font-family="Times,serif" font-size="14.00">AccessModule</text>
</g>
<!-- AccessComponent&#45;&gt;AccessModule -->
<g id="edge1" class="edge">
<title>AccessComponent&#45;&gt;AccessModule</title>
<path fill="none" stroke="black" d="M287.55,-122.11C287.55,-122.11 287.55,-140.99 287.55,-140.99"/>
<polygon fill="black" stroke="black" points="284.05,-140.99 287.55,-150.99 291.05,-140.99 284.05,-140.99"/>
</g>
<!-- AccessRoutingModule -->
<g id="node3" class="node">
<title>AccessRoutingModule</title>
<polygon fill="#8dd3c7" stroke="black" points="248.31,-122 245.31,-126 224.31,-126 221.31,-122 103.69,-122 103.69,-86 248.31,-86 248.31,-122"/>
<text text-anchor="middle" x="176" y="-99.8" font-family="Times,serif" font-size="14.00">AccessRoutingModule</text>
</g>
<!-- AccessRoutingModule&#45;&gt;AccessModule -->
<g id="edge2" class="edge">
<title>AccessRoutingModule&#45;&gt;AccessModule</title>
<path fill="none" stroke="black" d="M226.28,-122.11C226.28,-122.11 226.28,-140.99 226.28,-140.99"/>
<polygon fill="black" stroke="black" points="222.78,-140.99 226.28,-150.99 229.78,-140.99 222.78,-140.99"/>
</g>
</g>
</svg>
