<?xml version="1.0" encoding="UTF-8" standalone="no"?>
<!DOCTYPE svg PUBLIC "-//W3C//DTD SVG 1.1//EN"
 "http://www.w3.org/Graphics/SVG/1.1/DTD/svg11.dtd">
<!-- Generated by graphviz version 2.47.0 (20210316.0004)
 -->
<!-- Title: dependencies Pages: 1 -->
<svg width="1194pt" height="211pt"
 viewBox="0.00 0.00 1194.00 211.00" xmlns="http://www.w3.org/2000/svg" xmlns:xlink="http://www.w3.org/1999/xlink">
<g id="graph0" class="graph" transform="scale(1 1) rotate(0) translate(4 207)">
<title>dependencies</title>
<polygon fill="white" stroke="transparent" points="-4,4 -4,-207 1190,-207 1190,4 -4,4"/>
<text text-anchor="start" x="572.01" y="-42.4" font-family="Times-12" font-weight="bold" font-size="14.00">Legend</text>
<polygon fill="#ffffb3" stroke="transparent" points="359,-10 359,-30 379,-30 379,-10 359,-10"/>
<text text-anchor="start" x="382.63" y="-15.4" font-family="Times-12" font-size="14.00"> &#160;Declarations</text>
<polygon fill="#8dd3c7" stroke="transparent" points="472,-10 472,-30 492,-30 492,-10 472,-10"/>
<text text-anchor="start" x="495.73" y="-15.4" font-family="Times-12" font-size="14.00"> &#160;Module</text>
<polygon fill="#80b1d3" stroke="transparent" points="558,-10 558,-30 578,-30 578,-10 558,-10"/>
<text text-anchor="start" x="581.78" y="-15.4" font-family="Times-12" font-size="14.00"> &#160;Bootstrap</text>
<polygon fill="#fdb462" stroke="transparent" points="655,-10 655,-30 675,-30 675,-10 655,-10"/>
<text text-anchor="start" x="678.67" y="-15.4" font-family="Times-12" font-size="14.00"> &#160;Providers</text>
<polygon fill="#fb8072" stroke="transparent" points="751,-10 751,-30 771,-30 771,-10 751,-10"/>
<text text-anchor="start" x="774.73" y="-15.4" font-family="Times-12" font-size="14.00"> &#160;Exports</text>
<g id="clust1" class="cluster">
<title>cluster_WizardModule</title>
<polygon fill="none" stroke="black" stroke-dasharray="1,5" points="8,-70 8,-195 1178,-195 1178,-70 8,-70"/>
</g>
<g id="clust2" class="cluster">
<title>cluster_WizardModule_declarations</title>
<polygon fill="none" stroke="black" points="353,-78 353,-130 1170,-130 1170,-78 353,-78"/>
</g>
<g id="clust8" class="cluster">
<title>cluster_WizardModule_imports</title>
<polygon fill="none" stroke="black" points="16,-78 16,-130 345,-130 345,-78 16,-78"/>
</g>
<!-- CourseDetailComponent -->
<g id="node1" class="node">
<title>CourseDetailComponent</title>
<polygon fill="#ffffb3" stroke="black" points="1161.7,-122 1006.3,-122 1006.3,-86 1161.7,-86 1161.7,-122"/>
<text text-anchor="middle" x="1084" y="-99.8" font-family="Times,serif" font-size="14.00">CourseDetailComponent</text>
</g>
<!-- WizardModule -->
<g id="node6" class="node">
<title>WizardModule</title>
<polygon fill="#8dd3c7" stroke="black" points="549.25,-187 546.25,-191 525.25,-191 522.25,-187 448.75,-187 448.75,-151 549.25,-151 549.25,-187"/>
<text text-anchor="middle" x="499" y="-164.8" font-family="Times,serif" font-size="14.00">WizardModule</text>
</g>
<!-- CourseDetailComponent&#45;&gt;WizardModule -->
<g id="edge1" class="edge">
<title>CourseDetailComponent&#45;&gt;WizardModule</title>
<path fill="none" stroke="black" d="M1084,-122.29C1084,-144.21 1084,-178 1084,-178 1084,-178 559.38,-178 559.38,-178"/>
<polygon fill="black" stroke="black" points="559.38,-174.5 549.38,-178 559.38,-181.5 559.38,-174.5"/>
</g>
<!-- ItemSelectionComponent -->
<g id="node2" class="node">
<title>ItemSelectionComponent</title>
<polygon fill="#ffffb3" stroke="black" points="988.59,-122 829.41,-122 829.41,-86 988.59,-86 988.59,-122"/>
<text text-anchor="middle" x="909" y="-99.8" font-family="Times,serif" font-size="14.00">ItemSelectionComponent</text>
</g>
<!-- ItemSelectionComponent&#45;&gt;WizardModule -->
<g id="edge2" class="edge">
<title>ItemSelectionComponent&#45;&gt;WizardModule</title>
<path fill="none" stroke="black" d="M909,-122.11C909,-141.34 909,-169 909,-169 909,-169 559.27,-169 559.27,-169"/>
<polygon fill="black" stroke="black" points="559.27,-165.5 549.27,-169 559.27,-172.5 559.27,-165.5"/>
</g>
<!-- PreWizardComponent -->
<g id="node3" class="node">
<title>PreWizardComponent</title>
<polygon fill="#ffffb3" stroke="black" points="811.69,-122 670.31,-122 670.31,-86 811.69,-86 811.69,-122"/>
<text text-anchor="middle" x="741" y="-99.8" font-family="Times,serif" font-size="14.00">PreWizardComponent</text>
</g>
<!-- PreWizardComponent&#45;&gt;WizardModule -->
<g id="edge3" class="edge">
<title>PreWizardComponent&#45;&gt;WizardModule</title>
<path fill="none" stroke="black" d="M741,-122.03C741,-138.4 741,-160 741,-160 741,-160 559.44,-160 559.44,-160"/>
<polygon fill="black" stroke="black" points="559.44,-156.5 549.44,-160 559.44,-163.5 559.44,-156.5"/>
</g>
<!-- RoomTimesComponent -->
<g id="node4" class="node">
<title>RoomTimesComponent</title>
<polygon fill="#ffffb3" stroke="black" points="652.05,-122 501.95,-122 501.95,-86 652.05,-86 652.05,-122"/>
<text text-anchor="middle" x="577" y="-99.8" font-family="Times,serif" font-size="14.00">RoomTimesComponent</text>
</g>
<!-- RoomTimesComponent&#45;&gt;WizardModule -->
<g id="edge4" class="edge">
<title>RoomTimesComponent&#45;&gt;WizardModule</title>
<path fill="none" stroke="black" d="M525.55,-122.11C525.55,-122.11 525.55,-140.99 525.55,-140.99"/>
<polygon fill="black" stroke="black" points="522.05,-140.99 525.55,-150.99 529.05,-140.99 522.05,-140.99"/>
</g>
<!-- WizardComponent -->
<g id="node5" class="node">
<title>WizardComponent</title>
<polygon fill="#ffffb3" stroke="black" points="483.03,-122 360.97,-122 360.97,-86 483.03,-86 483.03,-122"/>
<text text-anchor="middle" x="422" y="-99.8" font-family="Times,serif" font-size="14.00">WizardComponent</text>
</g>
<!-- WizardComponent&#45;&gt;WizardModule -->
<g id="edge5" class="edge">
<title>WizardComponent&#45;&gt;WizardModule</title>
<path fill="none" stroke="black" d="M465.95,-122.11C465.95,-122.11 465.95,-140.99 465.95,-140.99"/>
<polygon fill="black" stroke="black" points="462.45,-140.99 465.95,-150.99 469.45,-140.99 462.45,-140.99"/>
</g>
<!-- NgClass -->
<g id="node7" class="node">
<title>NgClass</title>
<polygon fill="#8dd3c7" stroke="black" points="336.94,-122 333.94,-126 312.94,-126 309.94,-122 273.06,-122 273.06,-86 336.94,-86 336.94,-122"/>
<text text-anchor="middle" x="305" y="-99.8" font-family="Times,serif" font-size="14.00">NgClass</text>
</g>
<!-- NgClass&#45;&gt;WizardModule -->
<g id="edge6" class="edge">
<title>NgClass&#45;&gt;WizardModule</title>
<path fill="none" stroke="black" d="M305,-122.03C305,-138.4 305,-160 305,-160 305,-160 438.54,-160 438.54,-160"/>
<polygon fill="black" stroke="black" points="438.54,-163.5 448.54,-160 438.54,-156.5 438.54,-163.5"/>
</g>
<!-- NgForOf -->
<g id="node8" class="node">
<title>NgForOf</title>
<polygon fill="#8dd3c7" stroke="black" points="255.82,-122 252.82,-126 231.82,-126 228.82,-122 188.18,-122 188.18,-86 255.82,-86 255.82,-122"/>
<text text-anchor="middle" x="222" y="-99.8" font-family="Times,serif" font-size="14.00">NgForOf</text>
</g>
<!-- NgForOf&#45;&gt;WizardModule -->
<g id="edge7" class="edge">
<title>NgForOf&#45;&gt;WizardModule</title>
<path fill="none" stroke="black" d="M222,-122.11C222,-141.34 222,-169 222,-169 222,-169 438.52,-169 438.52,-169"/>
<polygon fill="black" stroke="black" points="438.52,-172.5 448.52,-169 438.52,-165.5 438.52,-172.5"/>
</g>
<!-- WizardRoutingModule -->
<g id="node9" class="node">
<title>WizardRoutingModule</title>
<polygon fill="#8dd3c7" stroke="black" points="169.86,-122 166.86,-126 145.86,-126 142.86,-122 24.14,-122 24.14,-86 169.86,-86 169.86,-122"/>
<text text-anchor="middle" x="97" y="-99.8" font-family="Times,serif" font-size="14.00">WizardRoutingModule</text>
</g>
<!-- WizardRoutingModule&#45;&gt;WizardModule -->
<g id="edge8" class="edge">
<title>WizardRoutingModule&#45;&gt;WizardModule</title>
<path fill="none" stroke="black" d="M97,-122.29C97,-144.21 97,-178 97,-178 97,-178 438.49,-178 438.49,-178"/>
<polygon fill="black" stroke="black" points="438.49,-181.5 448.49,-178 438.49,-174.5 438.49,-181.5"/>
</g>
</g>
</svg>
