<?xml version="1.0" encoding="UTF-8" standalone="no"?>
<!DOCTYPE svg PUBLIC "-//W3C//DTD SVG 1.1//EN"
 "http://www.w3.org/Graphics/SVG/1.1/DTD/svg11.dtd">
<!-- Generated by graphviz version 2.47.0 (20210316.0004)
 -->
<!-- Title: dependencies Pages: 1 -->
<svg width="778pt" height="284pt"
 viewBox="0.00 0.00 778.00 284.00" xmlns="http://www.w3.org/2000/svg" xmlns:xlink="http://www.w3.org/1999/xlink">
<g id="graph0" class="graph" transform="scale(1 1) rotate(0) translate(4 280)">
<title>dependencies</title>
<polygon fill="white" stroke="transparent" points="-4,4 -4,-280 774,-280 774,4 -4,4"/>
<text text-anchor="start" x="364.01" y="-42.4" font-family="Times-12" font-weight="bold" font-size="14.00">Legend</text>
<polygon fill="#ffffb3" stroke="transparent" points="151,-10 151,-30 171,-30 171,-10 151,-10"/>
<text text-anchor="start" x="174.63" y="-15.4" font-family="Times-12" font-size="14.00"> &#160;Declarations</text>
<polygon fill="#8dd3c7" stroke="transparent" points="264,-10 264,-30 284,-30 284,-10 264,-10"/>
<text text-anchor="start" x="287.73" y="-15.4" font-family="Times-12" font-size="14.00"> &#160;Module</text>
<polygon fill="#80b1d3" stroke="transparent" points="350,-10 350,-30 370,-30 370,-10 350,-10"/>
<text text-anchor="start" x="373.78" y="-15.4" font-family="Times-12" font-size="14.00"> &#160;Bootstrap</text>
<polygon fill="#fdb462" stroke="transparent" points="447,-10 447,-30 467,-30 467,-10 447,-10"/>
<text text-anchor="start" x="470.67" y="-15.4" font-family="Times-12" font-size="14.00"> &#160;Providers</text>
<polygon fill="#fb8072" stroke="transparent" points="543,-10 543,-30 563,-30 563,-10 543,-10"/>
<text text-anchor="start" x="566.73" y="-15.4" font-family="Times-12" font-size="14.00"> &#160;Exports</text>
<g id="clust1" class="cluster">
<title>cluster_AppModule</title>
<polygon fill="none" stroke="black" stroke-dasharray="1,5" points="8,-70 8,-268 762,-268 762,-70 8,-70"/>
</g>
<g id="clust5" class="cluster">
<title>cluster_AppModule_imports</title>
<polygon fill="none" stroke="black" points="468,-78 468,-130 754,-130 754,-78 468,-78"/>
</g>
<g id="clust8" class="cluster">
<title>cluster_AppModule_providers</title>
<polygon fill="none" stroke="black" points="298,-78 298,-130 460,-130 460,-78 298,-78"/>
</g>
<g id="clust2" class="cluster">
<title>cluster_AppModule_declarations</title>
<polygon fill="none" stroke="black" points="16,-78 16,-130 290,-130 290,-78 16,-78"/>
</g>
<g id="clust7" class="cluster">
<title>cluster_AppModule_bootstrap</title>
<polygon fill="none" stroke="black" points="317,-208 317,-260 441,-260 441,-208 317,-208"/>
</g>
<!-- AppComponent -->
<g id="node1" class="node">
<title>AppComponent</title>
<polygon fill="#ffffb3" stroke="black" points="281.94,-122 176.06,-122 176.06,-86 281.94,-86 281.94,-122"/>
<text text-anchor="middle" x="229" y="-99.8" font-family="Times,serif" font-size="14.00">AppComponent</text>
</g>
<!-- AppModule -->
<g id="node3" class="node">
<title>AppModule</title>
<polygon fill="#8dd3c7" stroke="black" points="420.66,-187 417.66,-191 396.66,-191 393.66,-187 337.34,-187 337.34,-151 420.66,-151 420.66,-187"/>
<text text-anchor="middle" x="379" y="-164.8" font-family="Times,serif" font-size="14.00">AppModule</text>
</g>
<!-- AppComponent&#45;&gt;AppModule -->
<g id="edge1" class="edge">
<title>AppComponent&#45;&gt;AppModule</title>
<path fill="none" stroke="black" d="M229,-122.02C229,-139.37 229,-163 229,-163 229,-163 327.22,-163 327.22,-163"/>
<polygon fill="black" stroke="black" points="327.22,-166.5 337.22,-163 327.22,-159.5 327.22,-166.5"/>
</g>
<!-- NotfoundComponent -->
<g id="node2" class="node">
<title>NotfoundComponent</title>
<polygon fill="#ffffb3" stroke="black" points="158.49,-122 23.51,-122 23.51,-86 158.49,-86 158.49,-122"/>
<text text-anchor="middle" x="91" y="-99.8" font-family="Times,serif" font-size="14.00">NotfoundComponent</text>
</g>
<!-- NotfoundComponent&#45;&gt;AppModule -->
<g id="edge2" class="edge">
<title>NotfoundComponent&#45;&gt;AppModule</title>
<path fill="none" stroke="black" d="M91,-122.28C91,-143.32 91,-175 91,-175 91,-175 327.12,-175 327.12,-175"/>
<polygon fill="black" stroke="black" points="327.12,-178.5 337.12,-175 327.12,-171.5 327.12,-178.5"/>
</g>
<!-- AppComponent  -->
<g id="node6" class="node">
<title>AppComponent </title>
<polygon fill="#80b1d3" stroke="black" points="433.44,-252 324.56,-252 324.56,-216 433.44,-216 433.44,-252"/>
<text text-anchor="middle" x="379" y="-229.8" font-family="Times,serif" font-size="14.00">AppComponent </text>
</g>
<!-- AppModule&#45;&gt;AppComponent  -->
<g id="edge5" class="edge">
<title>AppModule&#45;&gt;AppComponent </title>
<path fill="none" stroke="black" stroke-dasharray="1,5" d="M379,-187.11C379,-187.11 379,-205.99 379,-205.99"/>
<polygon fill="black" stroke="black" points="375.5,-205.99 379,-215.99 382.5,-205.99 375.5,-205.99"/>
</g>
<!-- AppLayoutModule -->
<g id="node4" class="node">
<title>AppLayoutModule</title>
<polygon fill="#8dd3c7" stroke="black" points="745.81,-122 742.81,-126 721.81,-126 718.81,-122 622.19,-122 622.19,-86 745.81,-86 745.81,-122"/>
<text text-anchor="middle" x="684" y="-99.8" font-family="Times,serif" font-size="14.00">AppLayoutModule</text>
</g>
<!-- AppLayoutModule&#45;&gt;AppModule -->
<g id="edge3" class="edge">
<title>AppLayoutModule&#45;&gt;AppModule</title>
<path fill="none" stroke="black" d="M684,-122.28C684,-143.32 684,-175 684,-175 684,-175 430.77,-175 430.77,-175"/>
<polygon fill="black" stroke="black" points="430.77,-171.5 420.77,-175 430.77,-178.5 430.77,-171.5"/>
</g>
<!-- AppRoutingModule -->
<g id="node5" class="node">
<title>AppRoutingModule</title>
<polygon fill="#8dd3c7" stroke="black" points="604.27,-122 601.27,-126 580.27,-126 577.27,-122 475.73,-122 475.73,-86 604.27,-86 604.27,-122"/>
<text text-anchor="middle" x="540" y="-99.8" font-family="Times,serif" font-size="14.00">AppRoutingModule</text>
</g>
<!-- AppRoutingModule&#45;&gt;AppModule -->
<g id="edge4" class="edge">
<title>AppRoutingModule&#45;&gt;AppModule</title>
<path fill="none" stroke="black" d="M540,-122.02C540,-139.37 540,-163 540,-163 540,-163 430.88,-163 430.88,-163"/>
<polygon fill="black" stroke="black" points="430.88,-159.5 420.88,-163 430.88,-166.5 430.88,-159.5"/>
</g>
<!-- AuthInterceptor -->
<g id="node7" class="node">
<title>AuthInterceptor</title>
<ellipse fill="#fdb462" stroke="black" cx="379" cy="-104" rx="72.91" ry="18"/>
<text text-anchor="middle" x="379" y="-99.8" font-family="Times,serif" font-size="14.00">AuthInterceptor</text>
</g>
<!-- AuthInterceptor&#45;&gt;AppModule -->
<g id="edge6" class="edge">
<title>AuthInterceptor&#45;&gt;AppModule</title>
<path fill="none" stroke="black" d="M379,-122.11C379,-122.11 379,-140.99 379,-140.99"/>
<polygon fill="black" stroke="black" points="375.5,-140.99 379,-150.99 382.5,-140.99 375.5,-140.99"/>
</g>
</g>
</svg>
