<?xml version="1.0" encoding="UTF-8" standalone="no"?>
<!DOCTYPE svg PUBLIC "-//W3C//DTD SVG 1.1//EN"
 "http://www.w3.org/Graphics/SVG/1.1/DTD/svg11.dtd">
<!-- Generated by graphviz version 2.47.0 (20210316.0004)
 -->
<!-- Title: dependencies Pages: 1 -->
<svg width="974pt" height="211pt"
 viewBox="0.00 0.00 974.00 211.00" xmlns="http://www.w3.org/2000/svg" xmlns:xlink="http://www.w3.org/1999/xlink">
<g id="graph0" class="graph" transform="scale(1 1) rotate(0) translate(4 207)">
<title>dependencies</title>
<polygon fill="white" stroke="transparent" points="-4,4 -4,-207 970,-207 970,4 -4,4"/>
<text text-anchor="start" x="462.01" y="-42.4" font-family="Times-12" font-weight="bold" font-size="14.00">Legend</text>
<polygon fill="#ffffb3" stroke="transparent" points="249,-10 249,-30 269,-30 269,-10 249,-10"/>
<text text-anchor="start" x="272.63" y="-15.4" font-family="Times-12" font-size="14.00"> &#160;Declarations</text>
<polygon fill="#8dd3c7" stroke="transparent" points="362,-10 362,-30 382,-30 382,-10 362,-10"/>
<text text-anchor="start" x="385.73" y="-15.4" font-family="Times-12" font-size="14.00"> &#160;Module</text>
<polygon fill="#80b1d3" stroke="transparent" points="448,-10 448,-30 468,-30 468,-10 448,-10"/>
<text text-anchor="start" x="471.78" y="-15.4" font-family="Times-12" font-size="14.00"> &#160;Bootstrap</text>
<polygon fill="#fdb462" stroke="transparent" points="545,-10 545,-30 565,-30 565,-10 545,-10"/>
<text text-anchor="start" x="568.67" y="-15.4" font-family="Times-12" font-size="14.00"> &#160;Providers</text>
<polygon fill="#fb8072" stroke="transparent" points="641,-10 641,-30 661,-30 661,-10 641,-10"/>
<text text-anchor="start" x="664.73" y="-15.4" font-family="Times-12" font-size="14.00"> &#160;Exports</text>
<g id="clust1" class="cluster">
<title>cluster_EditorModule</title>
<polygon fill="none" stroke="black" stroke-dasharray="1,5" points="8,-70 8,-195 958,-195 958,-70 8,-70"/>
</g>
<g id="clust7" class="cluster">
<title>cluster_EditorModule_imports</title>
<polygon fill="none" stroke="black" points="703,-78 703,-130 950,-130 950,-78 703,-78"/>
</g>
<g id="clust2" class="cluster">
<title>cluster_EditorModule_declarations</title>
<polygon fill="none" stroke="black" points="16,-78 16,-130 695,-130 695,-78 16,-78"/>
</g>
<!-- EditorCalendarComponent -->
<g id="node1" class="node">
<title>EditorCalendarComponent</title>
<polygon fill="#ffffb3" stroke="black" points="687.36,-122 520.64,-122 520.64,-86 687.36,-86 687.36,-122"/>
<text text-anchor="middle" x="604" y="-99.8" font-family="Times,serif" font-size="14.00">EditorCalendarComponent</text>
</g>
<!-- EditorModule -->
<g id="node5" class="node">
<title>EditorModule</title>
<polygon fill="#8dd3c7" stroke="black" points="571.05,-187 568.05,-191 547.05,-191 544.05,-187 476.95,-187 476.95,-151 571.05,-151 571.05,-187"/>
<text text-anchor="middle" x="524" y="-164.8" font-family="Times,serif" font-size="14.00">EditorModule</text>
</g>
<!-- EditorCalendarComponent&#45;&gt;EditorModule -->
<g id="edge1" class="edge">
<title>EditorCalendarComponent&#45;&gt;EditorModule</title>
<path fill="none" stroke="black" d="M545.92,-122.11C545.92,-122.11 545.92,-140.99 545.92,-140.99"/>
<polygon fill="black" stroke="black" points="542.42,-140.99 545.92,-150.99 549.42,-140.99 542.42,-140.99"/>
</g>
<!-- EditorComponent -->
<g id="node2" class="node">
<title>EditorComponent</title>
<polygon fill="#ffffb3" stroke="black" points="502.33,-122 385.67,-122 385.67,-86 502.33,-86 502.33,-122"/>
<text text-anchor="middle" x="444" y="-99.8" font-family="Times,serif" font-size="14.00">EditorComponent</text>
</g>
<!-- EditorComponent&#45;&gt;EditorModule -->
<g id="edge2" class="edge">
<title>EditorComponent&#45;&gt;EditorModule</title>
<path fill="none" stroke="black" d="M489.45,-122.11C489.45,-122.11 489.45,-140.99 489.45,-140.99"/>
<polygon fill="black" stroke="black" points="485.95,-140.99 489.45,-150.99 492.95,-140.99 485.95,-140.99"/>
</g>
<!-- EditorHeaderComponent -->
<g id="node3" class="node">
<title>EditorHeaderComponent</title>
<polygon fill="#ffffb3" stroke="black" points="367.24,-122 210.76,-122 210.76,-86 367.24,-86 367.24,-122"/>
<text text-anchor="middle" x="289" y="-99.8" font-family="Times,serif" font-size="14.00">EditorHeaderComponent</text>
</g>
<!-- EditorHeaderComponent&#45;&gt;EditorModule -->
<g id="edge3" class="edge">
<title>EditorHeaderComponent&#45;&gt;EditorModule</title>
<path fill="none" stroke="black" d="M289,-122.02C289,-139.37 289,-163 289,-163 289,-163 466.73,-163 466.73,-163"/>
<polygon fill="black" stroke="black" points="466.73,-166.5 476.73,-163 466.73,-159.5 466.73,-166.5"/>
</g>
<!-- EditorSelectionComponent -->
<g id="node4" class="node">
<title>EditorSelectionComponent</title>
<polygon fill="#ffffb3" stroke="black" points="192.43,-122 23.57,-122 23.57,-86 192.43,-86 192.43,-122"/>
<text text-anchor="middle" x="108" y="-99.8" font-family="Times,serif" font-size="14.00">EditorSelectionComponent</text>
</g>
<!-- EditorSelectionComponent&#45;&gt;EditorModule -->
<g id="edge4" class="edge">
<title>EditorSelectionComponent&#45;&gt;EditorModule</title>
<path fill="none" stroke="black" d="M108,-122.28C108,-143.32 108,-175 108,-175 108,-175 466.68,-175 466.68,-175"/>
<polygon fill="black" stroke="black" points="466.68,-178.5 476.68,-175 466.68,-171.5 466.68,-178.5"/>
</g>
<!-- EditorsRoutingModule -->
<g id="node6" class="node">
<title>EditorsRoutingModule</title>
<polygon fill="#8dd3c7" stroke="black" points="941.61,-122 938.61,-126 917.61,-126 914.61,-122 796.39,-122 796.39,-86 941.61,-86 941.61,-122"/>
<text text-anchor="middle" x="869" y="-99.8" font-family="Times,serif" font-size="14.00">EditorsRoutingModule</text>
</g>
<!-- EditorsRoutingModule&#45;&gt;EditorModule -->
<g id="edge5" class="edge">
<title>EditorsRoutingModule&#45;&gt;EditorModule</title>
<path fill="none" stroke="black" d="M869,-122.28C869,-143.32 869,-175 869,-175 869,-175 581.25,-175 581.25,-175"/>
<polygon fill="black" stroke="black" points="581.25,-171.5 571.25,-175 581.25,-178.5 581.25,-171.5"/>
</g>
<!-- NgForOf -->
<g id="node7" class="node">
<title>NgForOf</title>
<polygon fill="#8dd3c7" stroke="black" points="778.82,-122 775.82,-126 754.82,-126 751.82,-122 711.18,-122 711.18,-86 778.82,-86 778.82,-122"/>
<text text-anchor="middle" x="745" y="-99.8" font-family="Times,serif" font-size="14.00">NgForOf</text>
</g>
<!-- NgForOf&#45;&gt;EditorModule -->
<g id="edge6" class="edge">
<title>NgForOf&#45;&gt;EditorModule</title>
<path fill="none" stroke="black" d="M745,-122.02C745,-139.37 745,-163 745,-163 745,-163 581.14,-163 581.14,-163"/>
<polygon fill="black" stroke="black" points="581.14,-159.5 571.14,-163 581.14,-166.5 581.14,-159.5"/>
</g>
</g>
</svg>
