<?xml version="1.0" encoding="UTF-8" standalone="no"?>
<!DOCTYPE svg PUBLIC "-//W3C//DTD SVG 1.1//EN"
 "http://www.w3.org/Graphics/SVG/1.1/DTD/svg11.dtd">
<!-- Generated by graphviz version 2.47.0 (20210316.0004)
 -->
<!-- Title: dependencies Pages: 1 -->
<svg width="545pt" height="211pt"
 viewBox="0.00 0.00 545.00 211.00" xmlns="http://www.w3.org/2000/svg" xmlns:xlink="http://www.w3.org/1999/xlink">
<g id="graph0" class="graph" transform="scale(1 1) rotate(0) translate(4 207)">
<title>dependencies</title>
<polygon fill="white" stroke="transparent" points="-4,4 -4,-207 541,-207 541,4 -4,4"/>
<text text-anchor="start" x="247.51" y="-42.4" font-family="Times-12" font-weight="bold" font-size="14.00">Legend</text>
<polygon fill="#ffffb3" stroke="transparent" points="34.5,-10 34.5,-30 54.5,-30 54.5,-10 34.5,-10"/>
<text text-anchor="start" x="58.13" y="-15.4" font-family="Times-12" font-size="14.00"> &#160;Declarations</text>
<polygon fill="#8dd3c7" stroke="transparent" points="147.5,-10 147.5,-30 167.5,-30 167.5,-10 147.5,-10"/>
<text text-anchor="start" x="171.23" y="-15.4" font-family="Times-12" font-size="14.00"> &#160;Module</text>
<polygon fill="#80b1d3" stroke="transparent" points="233.5,-10 233.5,-30 253.5,-30 253.5,-10 233.5,-10"/>
<text text-anchor="start" x="257.28" y="-15.4" font-family="Times-12" font-size="14.00"> &#160;Bootstrap</text>
<polygon fill="#fdb462" stroke="transparent" points="330.5,-10 330.5,-30 350.5,-30 350.5,-10 330.5,-10"/>
<text text-anchor="start" x="354.17" y="-15.4" font-family="Times-12" font-size="14.00"> &#160;Providers</text>
<polygon fill="#fb8072" stroke="transparent" points="426.5,-10 426.5,-30 446.5,-30 446.5,-10 426.5,-10"/>
<text text-anchor="start" x="450.23" y="-15.4" font-family="Times-12" font-size="14.00"> &#160;Exports</text>
<g id="clust1" class="cluster">
<title>cluster_FactoryModule</title>
<polygon fill="none" stroke="black" stroke-dasharray="1,5" points="8,-70 8,-195 529,-195 529,-70 8,-70"/>
</g>
<g id="clust2" class="cluster">
<title>cluster_FactoryModule_declarations</title>
<polygon fill="none" stroke="black" points="349,-78 349,-130 521,-130 521,-78 349,-78"/>
</g>
<g id="clust4" class="cluster">
<title>cluster_FactoryModule_imports</title>
<polygon fill="none" stroke="black" points="16,-78 16,-130 341,-130 341,-78 16,-78"/>
</g>
<!-- GenericViewComponent -->
<g id="node1" class="node">
<title>GenericViewComponent</title>
<polygon fill="#ffffb3" stroke="black" points="512.95,-122 357.05,-122 357.05,-86 512.95,-86 512.95,-122"/>
<text text-anchor="middle" x="435" y="-99.8" font-family="Times,serif" font-size="14.00">GenericViewComponent</text>
</g>
<!-- FactoryModule -->
<g id="node2" class="node">
<title>FactoryModule</title>
<polygon fill="#8dd3c7" stroke="black" points="244.31,-187 241.31,-191 220.31,-191 217.31,-187 141.69,-187 141.69,-151 244.31,-151 244.31,-187"/>
<text text-anchor="middle" x="193" y="-164.8" font-family="Times,serif" font-size="14.00">FactoryModule</text>
</g>
<!-- GenericViewComponent&#45;&gt;FactoryModule -->
<g id="edge1" class="edge">
<title>GenericViewComponent&#45;&gt;FactoryModule</title>
<path fill="none" stroke="black" d="M435,-122.11C435,-141.34 435,-169 435,-169 435,-169 254.32,-169 254.32,-169"/>
<polygon fill="black" stroke="black" points="254.32,-165.5 244.32,-169 254.32,-172.5 254.32,-165.5"/>
</g>
<!-- LandingRoutingModule -->
<g id="node3" class="node">
<title>LandingRoutingModule</title>
<polygon fill="#8dd3c7" stroke="black" points="332.83,-122 329.83,-126 308.83,-126 305.83,-122 181.17,-122 181.17,-86 332.83,-86 332.83,-122"/>
<text text-anchor="middle" x="257" y="-99.8" font-family="Times,serif" font-size="14.00">LandingRoutingModule</text>
</g>
<!-- LandingRoutingModule&#45;&gt;FactoryModule -->
<g id="edge2" class="edge">
<title>LandingRoutingModule&#45;&gt;FactoryModule</title>
<path fill="none" stroke="black" d="M212.75,-122.11C212.75,-122.11 212.75,-140.99 212.75,-140.99"/>
<polygon fill="black" stroke="black" points="209.25,-140.99 212.75,-150.99 216.25,-140.99 209.25,-140.99"/>
</g>
<!-- NgForOf -->
<g id="node4" class="node">
<title>NgForOf</title>
<polygon fill="#8dd3c7" stroke="black" points="163.82,-122 160.82,-126 139.82,-126 136.82,-122 96.18,-122 96.18,-86 163.82,-86 163.82,-122"/>
<text text-anchor="middle" x="130" y="-99.8" font-family="Times,serif" font-size="14.00">NgForOf</text>
</g>
<!-- NgForOf&#45;&gt;FactoryModule -->
<g id="edge3" class="edge">
<title>NgForOf&#45;&gt;FactoryModule</title>
<path fill="none" stroke="black" d="M152.75,-122.11C152.75,-122.11 152.75,-140.99 152.75,-140.99"/>
<polygon fill="black" stroke="black" points="149.25,-140.99 152.75,-150.99 156.25,-140.99 149.25,-140.99"/>
</g>
<!-- NgIf -->
<g id="node5" class="node">
<title>NgIf</title>
<polygon fill="#8dd3c7" stroke="black" points="78,-122 75,-126 54,-126 51,-122 24,-122 24,-86 78,-86 78,-122"/>
<text text-anchor="middle" x="51" y="-99.8" font-family="Times,serif" font-size="14.00">NgIf</text>
</g>
<!-- NgIf&#45;&gt;FactoryModule -->
<g id="edge4" class="edge">
<title>NgIf&#45;&gt;FactoryModule</title>
<path fill="none" stroke="black" d="M51,-122.11C51,-141.34 51,-169 51,-169 51,-169 131.73,-169 131.73,-169"/>
<polygon fill="black" stroke="black" points="131.73,-172.5 141.73,-169 131.73,-165.5 131.73,-172.5"/>
</g>
</g>
</svg>
